 <svg  version="1.0" xmlns="http://www.w3.org/2000/svg"  width="200.000000pt" height="200.000000pt" viewBox="0 0 200.000000 200.000000"  preserveAspectRatio="xMidYMid meet">  <g transform="translate(0.000000,200.000000) scale(0.100000,-0.100000)" fill="#f20d0d" stroke="none"> <path d="M875 1681 c-22 -4 -71 -23 -109 -43 l-69 -35 59 5 c40 3 81 16 128 39 37 19 70 32 73 30 2 -3 -25 -21 -61 -41 -37 -20 -66 -40 -66 -44 0 -8 61 -195 65 -200 2 -2 18 7 37 19 21 13 41 39 52 66 10 25 26 48 36 51 16 6 15 13 -9 82 -25 73 -27 75 -61 76 -19 1 -53 -1 -75 -5z m110 -56 c0 -28 -29 -25 -33 3 -3 19 0 23 15 20 10 -2 18 -12 18 -23z m-40 -35 c10 -11 22 -17 26 -14 18 10 20 -25 4 -55 -16 -31 -38 -40 -50 -21 -4 6 -15 8 -25 5 -26 -8 -44 66 -22 89 22 21 45 20 67 -4z m-17 -138 c2 -14 -2 -22 -12 -22 -19 0 -29 17 -22 36 8 22 30 12 34 -14z"/> <path d="M739 1591 l-46 -6 33 -85 c18 -47 34 -88 36 -92 2 -3 29 -9 60 -13 l57 -7 -35 106 c-20 58 -41 105 -47 104 -7 0 -33 -4 -58 -7z m75 -37 c10 -26 -5 -39 -21 -19 -7 11 -13 22 -13 27 0 15 28 8 34 -8z m46 -136 c0 -4 -6 -8 -14 -8 -14 0 -28 35 -18 45 7 6 32 -23 32 -37z"/> <path d="M1071 1525 l-55 -21 -43 -99 c-24 -54 -40 -102 -36 -105 5 -4 49 -32 99 -62 l90 -55 35 100 c18 55 35 103 37 107 1 4 -29 24 -68 44 -42 23 -68 42 -64 48 4 7 2 8 -4 4 -7 -4 -19 -3 -28 2 -11 6 -4 9 25 10 37 2 57 -11 31 -20 -6 -2 -1 -9 11 -16 12 -8 18 -9 15 -3 -11 17 10 21 30 6 19 -14 19 -14 -1 -15 -16 0 -17 -2 -5 -9 8 -6 26 -7 41 -4 15 3 30 0 33 -6 4 -6 0 -11 -10 -11 -13 0 -15 -3 -7 -11 8 -8 17 -7 34 4 13 8 35 18 49 21 14 4 4 -5 -21 -18 -41 -22 -49 -32 -67 -83 -11 -32 -23 -67 -27 -78 -8 -20 -8 -20 8 0 14 17 16 17 17 4 0 -18 -23 -42 -32 -34 -3 3 -8 -3 -11 -15 -7 -26 -5 -26 49 13 41 30 50 44 81 126 19 52 31 97 26 101 -4 4 -46 27 -93 52 l-85 44 -54 -21z m-21 -85 c0 -25 -17 -35 -35 -20 -11 9 -12 17 -5 31 12 22 40 14 40 -11z m116 -55 c4 -8 0 -22 -7 -31 -11 -13 -14 -13 -27 0 -17 17 -9 46 13 46 9 0 18 -7 21 -15z m-78 -38 c4 -20 -25 -34 -40 -19 -15 15 -1 44 19 40 10 -2 19 -11 21 -21z m-83 -31 c0 -22 -14 -29 -34 -17 -19 12 -6 43 16 39 10 -2 18 -12 18 -22z m115 -51 c10 -12 10 -18 0 -29 -14 -18 -40 -10 -40 13 0 32 20 40 40 16z"/> <path d="M1040 1128 c-1 -2 -2 -72 -3 -156 -2 -152 -2 -152 21 -152 20 0 22 5 22 55 0 49 2 55 21 55 15 0 27 -14 45 -54 18 -40 31 -55 49 -58 14 -3 25 -4 25 -2 0 2 -14 32 -32 68 l-31 64 31 51 32 51 -28 0 c-23 0 -32 -8 -50 -45 -15 -31 -28 -45 -42 -45 -18 0 -20 6 -20 85 0 78 -2 85 -20 85 -11 0 -20 -1 -20 -2z"/> <path d="M1269 1123 c0 -5 0 -73 0 -152 0 -146 3 -160 39 -161 17 0 29 33 14 38 -9 3 -12 45 -12 143 0 132 -1 139 -20 139 -11 0 -20 -3 -21 -7z"/> <path d="M430 965 l0 -145 25 0 c24 0 25 1 18 60 l-6 60 52 0 c44 0 51 3 51 20 0 17 -7 20 -50 20 l-50 0 0 45 0 45 54 0 c50 0 66 9 66 36 0 2 -36 4 -80 4 l-80 0 0 -145z"/> <path d="M648 1053 c-19 -3 -28 -10 -28 -23 0 -16 7 -17 65 -12 l65 5 0 -30 c0 -30 -2 -31 -54 -35 -30 -3 -62 -10 -70 -17 -20 -17 -21 -94 -3 -110 26 -21 74 -24 109 -7 20 11 34 13 36 6 2 -5 10 -10 19 -10 12 0 14 17 11 105 -2 63 -8 109 -15 116 -13 13 -91 20 -135 12z m100 -160 c-3 -38 -3 -38 -50 -41 l-48 -3 0 34 c0 43 4 47 57 47 l44 0 -3 -37z"/> <path d="M947 1040 c-30 -24 -37 -25 -37 -5 0 8 -7 15 -15 15 -12 0 -15 -19 -15 -115 0 -114 0 -115 24 -115 22 0 23 2 22 83 l-1 82 32 15 c23 11 32 21 30 38 -2 27 -7 27 -40 2z"/> <path d="M1430 1048 c-35 -19 -50 -54 -50 -118 0 -73 16 -102 62 -113 47 -11 123 3 123 23 0 12 -13 14 -67 11 l-68 -3 0 30 c0 28 2 29 56 35 30 3 62 11 70 18 19 16 18 93 -1 109 -22 18 -96 23 -125 8z m100 -62 c0 -38 -12 -46 -66 -46 -32 0 -34 2 -34 33 0 43 5 47 57 47 42 0 43 -1 43 -34z"/> </g> </svg> 